<svg width="127" height="32" viewBox="0 0 127 32" fill="none" xmlns="http://www.w3.org/2000/svg" aria-label="Skippo"><g clip-path="url(#clip0_3558_98838)"><path d="M9.76772 5.0518C11.1644 5.0518 12.2966 3.92092 12.2966 2.5259C12.2966 1.13088 11.1644 0 9.76772 0C8.37107 0 7.23886 1.13088 7.23886 2.5259C7.23886 3.92092 8.37107 5.0518 9.76772 5.0518Z" fill="#FAE14B"/><path d="M15.7833 12.7526L16.2764 9.74051H3.25907L3.74904 12.7526H15.7833Z" fill="#FAE14B"/><path d="M15.9571 18.5338C15.2395 21.366 12.6949 23.3488 9.76772 23.3488C6.84057 23.3488 4.2959 21.3691 3.57834 18.5338L3.49299 18.196L0 17.3593L0.104315 18.1833C0.711242 23.0394 4.86489 26.7019 9.76772 26.7019C14.6705 26.7019 18.8242 23.0394 19.4311 18.1833L19.5354 17.3624L16.0425 18.1991L15.9571 18.537V18.5338Z" fill="#FAE14B"/><path d="M40.4523 12.8537C36.8487 12.238 34.4842 11.6475 34.4842 9.17532C34.4842 6.95253 36.2544 5.62643 39.2195 5.62643C42.1845 5.62643 44.2108 7.22406 44.5301 9.79732L44.5427 9.90152H47.6469L47.6374 9.77522C47.3719 5.58223 44.0654 2.8732 39.2195 2.8732C34.3735 2.8732 31.4717 5.47172 31.4717 9.33635C31.4717 13.7377 35.2175 14.9596 38.8812 15.5753C42.5228 16.1942 44.9126 16.7909 44.9126 19.38C44.9126 21.647 42.9875 23.0551 39.8896 23.0551C36.5547 23.0551 34.2566 21.1449 34.0385 18.1896L34.029 18.0791H30.9216V18.2023C31.0955 22.8941 34.5189 25.8115 39.8548 25.8115C44.6059 25.8115 47.9219 23.0615 47.9219 19.1242C47.9219 14.6944 44.1444 13.4694 40.4491 12.8537H40.4523Z" fill="currentColor"/><path d="M58.8371 15.9511L65.2825 9.12481H61.7326L53.7288 17.5866V3.06265H50.8743V25.6221H53.7288V21.2776L56.9088 18.0097C59.3776 20.0714 61.151 22.6037 62.1847 25.54L62.2131 25.6189H65.6271L65.567 25.4611C63.9454 21.0502 61.7453 17.937 58.8371 15.9479V15.9511Z" fill="currentColor"/><path d="M68.706 2.99951C67.6723 2.99951 66.8947 3.77623 66.8947 4.80869C66.8947 5.84115 67.6723 6.61786 68.706 6.61786C69.7396 6.61786 70.5173 5.84115 70.5173 4.80869C70.5173 3.77623 69.7396 2.99951 68.706 2.99951Z" fill="currentColor"/><path d="M70.1 9.12164H67.2455V25.6221H70.1V9.12164Z" fill="currentColor"/><path d="M81.7802 8.93222C79.5168 8.93222 77.617 9.83839 76.2736 11.556L75.948 9.12482H73.4602V32.0032H76.3147V23.4025C77.4653 24.9622 79.3904 25.8179 81.7833 25.8179C86.4586 25.8179 89.724 22.3479 89.724 17.375C89.724 12.4022 86.6071 8.93222 81.7833 8.93222H81.7802ZM81.5241 23.2509C78.4358 23.2509 76.2799 20.8071 76.2799 17.3119C76.2799 13.8167 78.4358 11.4992 81.5241 11.4992C84.6125 11.4992 86.8 13.8609 86.8 17.375C86.8 20.8892 84.6789 23.2509 81.5241 23.2509Z" fill="currentColor"/><path d="M100.709 8.93222C98.4454 8.93222 96.5456 9.83839 95.2021 11.556L94.8765 9.12482H92.3887V32.0032H95.2432V23.4025C96.3938 24.9622 98.3189 25.8179 100.712 25.8179C105.387 25.8179 108.652 22.3479 108.652 17.375C108.652 12.4022 105.536 8.93222 100.712 8.93222H100.709ZM100.453 23.2509C97.3643 23.2509 95.2084 20.8071 95.2084 17.3119C95.2084 13.8167 97.3643 11.4992 100.453 11.4992C103.541 11.4992 105.728 13.8609 105.728 17.375C105.728 20.8892 103.607 23.2509 100.453 23.2509Z" fill="currentColor"/><path d="M118.771 8.93222C113.944 8.93222 110.574 12.4022 110.574 17.375C110.574 22.3479 113.944 25.8179 118.771 25.8179C123.598 25.8179 126.968 22.3479 126.968 17.375C126.968 12.4022 123.598 8.93222 118.771 8.93222ZM118.771 23.2509C115.664 23.2509 113.495 20.8355 113.495 17.375C113.495 13.9146 115.664 11.4992 118.771 11.4992C121.878 11.4992 124.047 13.9146 124.047 17.375C124.047 20.8355 121.878 23.2509 118.771 23.2509Z" fill="currentColor"/></g><defs><clipPath id="clip0_3558_98838"><rect width="126.968" height="32" fill="white"/></clipPath></defs></svg>
